<svg width="650" height="650" viewBox="0 0 650 650" fill="none" xmlns="http://www.w3.org/2000/svg">
<path d="M104.49 481.379C24.2468 403.348 20.1398 283.694 164.988 149.508C185.996 130 196.264 102.831 217.114 88.22C280.298 43.9126 368.992 52.9163 424.83 118.706C455.395 154.721 467.716 204.162 499.465 239.465C535.085 279.113 577.734 317.655 593.925 371.677C604.666 407.455 602.849 446.47 590.608 481.458C414.642 512.734 248.311 522.37 104.49 481.379Z" fill="#CCECF3"/>
<path d="M168.463 405.954C168.463 405.954 178.888 469.611 139.714 484.538C100.541 499.465 110.413 468.505 110.413 468.505C110.413 468.505 95.3281 463.293 139.478 441.81C160.249 431.701 168.463 405.954 168.463 405.954Z" fill="#0284B2"/>
<path d="M117.6 488.566C117.6 488.566 62.3148 488.961 50.2309 414.72C38.2261 340.48 10.1884 326.421 10.1884 326.421C10.1884 326.421 130.395 340.48 117.6 488.566Z" fill="#0284B2"/>
<path d="M119.259 486.592C106.385 505.705 74.2406 447.339 84.5079 409.666C94.7752 371.914 114.915 349.247 115.152 322.552C115.152 322.473 182.679 392.606 119.259 486.592Z" fill="#FF5F55"/>
<path d="M635.073 421.908C635.073 421.908 621.094 484.854 579.155 484.143C537.217 483.433 557.91 458.317 557.91 458.317C557.91 458.317 545.826 447.813 594.793 444.338C617.855 442.758 635.073 421.908 635.073 421.908Z" fill="#0284B2"/>
<path d="M560.753 480.826C560.753 480.826 518.341 467.558 531.452 420.565C544.484 373.572 527.345 358.408 527.345 358.408C527.345 358.408 614.933 396.081 560.753 480.826Z" fill="#FF5F55"/>
<path d="M565.018 479.247C545.984 492.199 537.77 426.094 561.385 394.897C584.921 363.7 612.09 350.116 622.199 325.395C622.199 325.395 658.846 415.668 565.018 479.247Z" fill="#0284B2"/>
<path d="M349.799 481.3L339.848 494.095C339.848 494.095 353.196 508.943 348.773 507.6C344.271 506.178 319.708 486.434 319.708 486.434C319.708 486.434 331.555 470.48 331.397 470.401C331.16 470.322 349.799 481.3 349.799 481.3Z" fill="#700B2F"/>
<path d="M364.411 385.34L322.315 474.034L349.089 489.119L392.843 409.666L390.079 383.524L364.411 385.34Z" fill="#700B2F"/>
<path d="M255.34 411.166L223.827 518.499L220.194 518.42L244.441 410.535L255.34 411.166ZM312.284 412.904L336.294 519.131L332.029 519.052L299.885 412.588L312.284 412.904ZM284.247 409.903L280.535 517.868L275.48 517.789L273.268 410.061L284.247 409.903Z" fill="#9AE45F"/>
<path d="M313.39 455.711L241.44 451.92L240.966 459.344L318.84 464.004L313.39 455.711Z" fill="#9AE45F"/>
<path opacity="0.15" d="M312.363 412.904L313.469 418.354L301.543 418.117L300.043 412.667L312.363 412.904ZM284.168 412.509L284.01 417.722L273.427 417.485L273.269 411.246L284.168 412.509Z" fill="#9AE45F"/>
<path opacity="0.5" d="M282.746 453.736L282.509 461.476L287.09 461.555L288.827 454.052L281.561 453.657M273.426 453.657V461.318L269.951 461.081L269.004 453.42L273.426 453.657Z" fill="#9AE45F"/>
<path d="M337.084 405.164C326.896 400.188 285.589 402.874 285.589 402.874C285.589 402.874 297.278 258.104 282.193 256.92C267.108 255.735 232.989 244.915 226.829 266.792C220.352 289.775 229.119 412.825 237.728 411.64C257.394 408.955 318.208 415.984 336.531 411.64C341.191 410.535 337.084 405.164 337.084 405.164Z" fill="#FF5F55"/>
<path d="M239.781 269.319C239.702 269.319 239.465 269.714 238.912 270.504C238.676 270.899 238.36 271.373 238.044 272.005C237.728 272.636 237.412 273.347 237.017 274.137C235.595 277.375 234.095 282.43 233.463 288.748C232.752 295.067 232.752 302.649 232.831 311.02C232.989 319.392 233.463 328.554 234.253 338.189C235.042 347.825 235.911 356.986 236.78 365.279C237.649 373.572 238.518 381.075 239.623 387.314C240.729 393.554 242.23 398.53 243.414 401.847C244.599 405.164 245.547 406.901 245.626 406.901C245.784 406.822 245.152 405.006 244.204 401.61C243.256 398.214 242.072 393.317 241.124 387.078C240.176 380.838 239.465 373.414 238.755 365.121C237.965 356.828 237.096 347.667 236.385 338.11C235.674 328.554 235.043 319.392 234.806 311.02C234.569 302.728 234.411 295.225 234.964 288.985C235.437 282.746 236.622 277.77 237.807 274.532C238.991 271.136 239.939 269.398 239.781 269.319Z" fill="#EA493F"/>
<path d="M392.764 321.367L396.555 319.392C396.555 319.392 399.004 318.523 402.953 316.154C403.979 315.522 404.927 314.732 405.638 313.864C406.586 312.758 407.77 311.257 408.244 310.231C408.797 308.967 410.456 308.888 410.772 309.994C411.009 311.099 409.666 314.575 406.507 317.655C403.348 320.735 409.982 319.787 412.43 319.55C414.879 319.234 422.382 318.681 423.013 319.392C423.882 320.34 422.934 321.604 420.486 321.841C418.038 322.078 410.772 323.341 410.851 324.605C410.93 325.869 423.329 324.21 423.329 324.21C423.329 324.21 425.936 323.42 426.094 324.921C426.41 327.527 413.22 328.396 411.956 328.396C411.088 328.396 411.166 329.818 412.114 329.739C413.062 329.66 424.435 327.764 424.751 330.449C424.988 332.503 413.931 331.239 411.64 332.898C409.35 334.556 420.249 332.977 420.407 334.951C420.486 335.662 420.407 336.215 414.168 336.294C407.77 336.294 390.553 333.53 390.553 333.53L393.001 321.367" fill="#D45985"/>
<path d="M308.177 269.793C308.177 269.793 340.48 313.232 347.904 315.128C355.328 317.102 397.74 319.629 397.74 319.629L401.531 337.953C401.531 337.953 347.272 340.796 335.346 332.029C316.549 318.208 296.883 286.3 296.883 286.3C296.252 275.796 300.28 270.583 308.177 269.793Z" fill="#F7F7F7"/>
<path d="M396.002 497.254L393.949 513.366C393.949 513.366 413.062 519.368 408.481 520.474C403.9 521.58 372.703 517.078 372.703 517.078C372.703 517.078 374.836 497.333 374.599 497.333C374.362 497.254 396.002 497.254 396.002 497.254ZM264.897 350.984C264.897 350.984 246.889 389.447 282.43 402.716L301.385 361.568L264.897 350.984Z" fill="#0284B2"/>
<path d="M289.617 361.251C289.617 361.251 392.132 333.056 403.663 356.75C415.194 380.364 401.452 503.493 401.452 503.493L369.386 500.097C369.386 500.097 374.757 391.974 369.386 388.183C364.016 384.392 290.17 403.031 282.43 402.715C263.554 401.926 250.207 366.701 289.617 361.251Z" fill="#0284B2"/>
<path d="M287.406 258.184C300.832 258.5 311.81 269.162 312.442 282.588C312.995 293.803 311.889 309.125 314.891 322.631C316.47 329.581 325.553 357.54 325.553 357.54L316.47 359.04C302.412 361.41 287.959 360.699 274.216 356.987L263.87 354.222C263.87 354.222 257.868 323.105 254.55 293.882C251.707 269.478 256.367 260 271.215 257.868L287.406 258.184Z" fill="#F7F7F7"/>
<path d="M294.514 259.921C294.04 257.551 294.83 247.6 294.83 247.6C294.83 247.6 303.913 246.415 304.228 237.412C304.623 228.408 303.597 207.636 303.597 207.636L286.853 199.896L268.925 214.034L267.266 223.985L271.452 235.832L273.348 258.42L294.514 259.921Z" fill="#D85B53"/>
<path d="M294.83 247.6C294.83 247.6 288.748 247.758 282.825 243.809C282.825 243.809 285.668 250.364 294.672 249.811L294.83 247.6Z" fill="#A0504B"/>
<path d="M314.654 352.09L318.919 351.853C318.919 351.853 321.525 352.09 326.106 351.537C327.29 351.379 328.475 351.063 329.581 350.589C330.924 349.957 332.661 349.089 333.451 348.378C334.478 347.43 336.057 348.062 335.82 349.247C335.583 350.431 332.898 352.959 328.712 354.459C324.526 355.96 331.002 357.934 333.293 358.645C335.583 359.356 342.691 362.041 342.928 362.91C343.323 364.174 341.902 364.884 339.611 364.095C337.242 363.305 330.213 361.33 329.739 362.515C329.344 363.7 341.191 367.333 341.191 367.333C341.191 367.333 343.876 367.728 343.402 369.149C342.533 371.677 330.292 366.859 329.107 366.385C328.317 366.069 327.764 367.333 328.633 367.649C329.581 367.965 340.638 371.045 339.769 373.572C339.137 375.547 329.581 369.702 326.817 370.334C324.052 370.887 334.557 374.046 333.925 375.863C333.688 376.573 333.372 377.047 327.685 374.441C321.841 371.756 307.467 362.041 307.467 362.041L314.812 352.011" fill="#D85B53"/>
<path d="M301.78 360.383C301.78 360.383 281.64 354.617 268.846 342.691C258.657 333.214 258.815 324.368 258.815 324.368L253.998 287.406L301.78 360.383Z" fill="#9AE45F"/>
<path d="M273.742 261.027C273.742 261.027 277.612 315.049 282.825 320.656C288.038 326.264 322.394 351.221 322.394 351.221L315.68 368.755C315.68 368.755 268.451 341.902 263.08 328.08C256.683 311.337 255.498 285.273 255.34 274.137C255.261 269.399 257.157 264.818 260.869 261.896C264.739 258.815 269.083 258.657 273.742 261.027Z" fill="#F7F7F7"/>
<path d="M247.521 406.665C247.679 407.297 256.999 405.796 268.688 404.848C280.298 403.9 289.854 403.822 289.854 403.19C289.854 402.637 280.298 401.768 268.53 402.716C256.683 403.743 247.363 406.112 247.521 406.665ZM251.075 311.732C251.154 311.811 251.549 311.732 251.707 311.1C251.865 310.547 251.549 309.599 250.759 309.046C250.365 308.73 249.733 308.493 249.022 308.572C248.627 308.651 248.311 308.73 247.995 308.888C247.679 309.046 247.442 309.283 247.205 309.52C246.258 310.626 246.021 312.127 246.574 313.627C247.126 315.049 248.232 316.075 249.575 316.391C249.891 316.47 250.286 316.47 250.601 316.47C250.917 316.47 251.312 316.312 251.549 316.154C252.102 315.839 252.497 315.365 252.655 314.891C253.05 314.022 252.971 313.074 252.576 312.6C252.26 312.126 251.865 312.126 251.786 312.205C251.707 312.284 251.786 312.6 251.786 312.916C251.786 313.232 251.707 313.706 251.312 314.101C251.154 314.338 250.917 314.496 250.68 314.575C250.522 314.575 250.444 314.654 250.365 314.575C250.207 314.575 250.049 314.575 249.97 314.496C249.417 314.338 248.706 313.706 248.469 312.916C248.232 312.205 248.311 311.258 248.627 310.784C249.022 310.231 249.338 310.152 249.891 310.31C250.365 310.468 250.68 310.863 250.838 311.1C250.996 311.337 250.917 311.653 251.075 311.732Z" fill="#EA493F"/>
<path d="M275.638 278.086C275.48 278.086 275.401 279.35 275.401 281.561C275.401 283.773 275.48 287.09 275.717 291.039C276.033 295.067 276.507 299.885 277.691 305.097C278.876 310.31 280.93 315.996 284.326 321.288C287.801 326.501 292.224 330.607 296.409 333.925C300.595 337.242 304.623 339.848 307.94 342.139C314.575 346.64 318.366 349.799 318.524 349.563C318.603 349.484 317.734 348.536 316.075 347.035C314.417 345.535 311.889 343.481 308.651 341.033C305.413 338.584 301.543 335.899 297.436 332.582C293.408 329.265 289.143 325.237 285.905 320.261C282.667 315.207 280.614 309.757 279.429 304.702C278.165 299.648 277.533 294.909 277.06 290.96C276.191 283.062 275.875 278.086 275.638 278.086ZM286.537 261.264L285.826 253.208L272.716 250.838L268.767 259.368L286.537 261.264ZM294.83 252.26L289.617 253.208V261.264L296.173 259.921L294.593 250.838M310.547 289.854C310.547 298.305 311.574 306.677 313.627 314.891L310.547 289.854Z" fill="#9AE45F"/>
<path d="M512.576 346.64H182.363V357.46H512.576V346.64ZM486.75 357.46L512.576 519.842L499.702 520.079L455.316 357.46H486.75Z" fill="#68253D"/>
<path d="M206.373 355.644L191.367 523.238H203.451L235.911 362.594L237.57 350.668L206.373 355.644Z" fill="#68253D"/>
<path opacity="0.3" d="M236.622 357.46L235.437 364.885L205.662 363.779L206.215 357.46H236.622ZM486.75 357.46L487.934 365.121L457.211 364.253L455.316 357.46H486.75Z" fill="#380300"/>
<path d="M463.135 286.537L442.521 346.64H349.405L350.115 343.56L387.789 342.376L405.085 286.537H463.135Z" fill="#9AE45F"/>
<path d="M421.829 315.601C421.197 318.05 422.303 320.498 424.198 320.972C426.094 321.446 428.147 319.866 428.779 317.418C429.411 314.97 428.305 312.521 426.409 312.047C424.514 311.573 422.461 313.153 421.829 315.601Z" fill="#F7F7F7"/>
<path d="M235.279 327.922C238.044 318.524 239.307 305.334 240.018 295.62C240.176 293.724 240.255 291.671 239.544 289.933C238.834 288.117 237.175 286.537 235.279 286.616C233.7 286.616 232.199 287.801 231.409 289.143C230.62 290.565 230.304 292.145 229.988 293.724C228.25 302.807 226.434 311.811 224.696 320.893C223.038 317.655 220.747 314.733 218.141 312.284C216.956 311.179 215.219 310.073 213.797 310.863C212.533 311.574 212.375 313.311 212.454 314.812C212.612 319.235 213.165 323.657 214.113 328.001" fill="#0284B2"/>
<path d="M239.07 326.975C239.07 326.975 243.73 345.377 224.933 346.246C207.637 347.035 211.744 326.975 211.744 326.975H239.07Z" fill="#0284B2"/>
<path d="M282.825 216.008C282.825 216.008 282.667 216.087 282.43 216.245C282.193 216.403 281.798 216.64 281.324 217.035C280.456 217.746 279.35 219.168 279.034 221.221C278.876 222.248 278.876 223.433 279.271 224.538C279.666 225.723 280.298 226.829 281.403 227.776C281.877 228.25 282.509 228.645 283.141 228.961C283.773 229.277 284.484 229.514 285.273 229.593C286.774 229.83 288.354 229.514 289.775 228.803C291.197 228.013 292.303 226.829 292.934 225.486C293.25 224.775 293.487 224.064 293.566 223.354C293.645 222.643 293.645 221.932 293.566 221.221C293.408 219.878 292.776 218.615 291.987 217.667C291.197 216.719 290.249 216.087 289.301 215.614C287.406 214.745 285.589 214.982 284.563 215.298C284.01 215.456 283.615 215.614 283.378 215.772C282.983 215.93 282.825 216.008 282.825 216.008C282.825 216.087 283.378 215.693 284.484 215.456C285.589 215.219 287.248 215.061 289.064 215.929C289.933 216.324 290.881 216.956 291.592 217.904C292.303 218.852 292.855 219.957 293.013 221.221C293.092 221.853 293.092 222.564 293.013 223.196C292.934 223.906 292.697 224.538 292.382 225.17C291.829 226.434 290.723 227.539 289.459 228.329C288.117 229.04 286.616 229.277 285.194 229.119C284.484 229.04 283.852 228.803 283.22 228.566C282.588 228.25 282.035 227.934 281.561 227.46C280.535 226.592 279.903 225.486 279.508 224.38C279.113 223.275 279.113 222.169 279.271 221.221C279.587 219.247 280.614 217.825 281.403 217.114C282.272 216.324 282.825 216.087 282.825 216.008ZM302.965 214.587H302.491C302.175 214.587 301.78 214.666 301.227 214.824C300.122 215.14 298.542 215.851 297.278 217.509C296.646 218.378 296.173 219.405 296.015 220.589C295.857 221.774 295.936 223.117 296.409 224.459C296.646 225.091 297.041 225.723 297.436 226.276C297.91 226.829 298.384 227.381 299.016 227.776C300.279 228.645 301.78 229.119 303.439 229.04C305.018 228.961 306.519 228.408 307.704 227.46C308.335 226.987 308.809 226.434 309.204 225.881C309.599 225.249 309.915 224.617 310.152 223.985C310.626 222.643 310.547 221.3 310.31 220.115C310.073 218.931 309.441 217.904 308.809 217.114C307.467 215.535 305.808 214.903 304.702 214.666C304.149 214.587 303.676 214.508 303.36 214.587C303.123 214.508 302.965 214.587 302.965 214.587C302.965 214.666 303.597 214.587 304.702 214.824C305.808 215.061 307.388 215.772 308.651 217.272C309.283 218.062 309.836 219.01 310.073 220.194C310.31 221.3 310.31 222.643 309.915 223.827C309.757 224.459 309.441 225.091 309.046 225.644C308.651 226.197 308.177 226.75 307.625 227.145C306.519 228.013 305.097 228.566 303.597 228.645C302.096 228.645 300.595 228.25 299.49 227.46C298.937 227.066 298.384 226.592 297.989 226.039C297.594 225.486 297.199 224.933 296.962 224.301C296.488 223.117 296.331 221.853 296.488 220.668C296.646 219.484 297.12 218.536 297.673 217.667C298.858 216.008 300.358 215.219 301.385 214.903C302.333 214.587 302.965 214.587 302.965 214.587Z" fill="#700B2F"/>
<path d="M296.252 222.485C296.252 222.406 295.541 222.327 294.672 222.327C293.803 222.327 293.171 222.485 293.171 222.564C293.171 222.643 293.882 222.722 294.751 222.722C295.62 222.722 296.331 222.643 296.252 222.485ZM279.429 223.116C279.429 223.037 277.77 222.958 275.717 223.037C273.663 223.116 272.005 223.274 272.005 223.353C272.005 223.432 273.663 223.511 275.717 223.432C277.77 223.353 279.429 223.195 279.429 223.116Z" fill="#700B2F"/>
<path d="M272.084 237.333C267.266 232.041 266.792 224.38 266.713 217.193C266.634 213.718 266.871 210.164 268.609 207.163C270.346 204.241 273.348 202.345 276.428 201.002C281.166 198.949 286.537 198.001 291.592 198.949C296.646 199.897 301.464 202.898 303.991 207.4C303.991 207.4 280.535 206.926 278.955 207.874C277.375 208.821 272.558 212.217 272.953 216.403C273.348 220.589 274.532 226.75 274.532 226.75L270.741 226.197C270.741 226.197 271.057 220.51 269.399 220.668C267.819 220.984 272.084 237.333 272.084 237.333Z" fill="#0284B2"/>
<path d="M270.978 227.618C270.82 228.25 270.109 228.724 269.399 228.645C268.688 228.645 268.056 228.25 267.503 227.855C266.397 226.987 265.45 225.723 265.292 224.301C265.134 222.88 265.766 221.3 266.95 220.589C268.214 219.878 270.03 220.194 270.741 221.458L270.978 227.618Z" fill="#D85B53"/>
</svg>
