<svg width="502" height="369" viewBox="0 0 502 369" fill="none" xmlns="http://www.w3.org/2000/svg">
<g clip-path="url(#clip0_1_22357)">
<path d="M5.40332 176.912C13.3302 207.44 30.0967 233.83 56.5927 246.623C111.675 273.208 235.899 259.497 328.612 243.758C376.571 235.618 418.724 213.152 449.346 181.537L5.40332 176.912Z" fill="#E6E6E6"/>
<path d="M491.586 33.2114H440.716C438.302 33.2114 436.321 31.4287 436.321 29.2504C436.321 27.0721 438.302 25.2849 440.716 25.2849H449.515C447.096 25.2849 445.12 23.5022 445.12 21.3193C445.12 19.1365 447.096 17.3583 449.515 17.3583H443.235C440.816 17.3583 438.836 15.5757 438.836 13.3928C438.836 11.2099 440.816 9.4318 443.235 9.4318H469.786C463.894 6.96244 457.008 5.20705 449.072 4.28388C376.671 -4.09742 350.823 1.44615 341.705 7.14434C330.34 14.3353 317.716 19.3249 304.494 21.8514C259.826 30.1599 176.29 40.1557 100.576 18.6681C62.9451 7.96746 34.9751 26.0261 18.2131 56.2134H500.421C499.791 47.441 497.906 39.3371 494.447 32.2473C493.628 32.8776 492.621 33.217 491.586 33.2114Z" fill="#E6E6E6"/>
<path d="M1.09061 113.191C-0.863295 130.946 -0.199105 148.89 3.06206 166.453L449.688 181.183C461.982 168.476 472.428 154.114 480.72 138.517L1.09061 113.191ZM177.737 151.186H168.943C171.361 151.186 173.342 152.974 173.342 155.152C173.342 157.33 171.361 159.113 168.943 159.113H118.073C115.659 159.113 113.678 157.33 113.678 155.152C113.678 152.974 115.659 151.186 118.073 151.186H126.871C124.453 151.186 122.477 149.404 122.477 147.225C122.477 145.047 124.453 143.26 126.871 143.26H120.587C118.169 143.26 116.188 141.477 116.188 139.299C116.188 137.121 118.169 135.333 120.587 135.333H171.457C173.876 135.333 175.852 137.116 175.852 139.299C175.852 141.482 173.876 143.26 171.457 143.26H177.737C180.155 143.26 182.131 145.043 182.131 147.225C182.131 149.408 180.155 151.186 177.737 151.186Z" fill="#E6E6E6"/>
<path d="M500.439 56.4863L12.8327 67.1733C6.90005 80.9208 2.96627 96.4646 1.15454 112.572H491.896C495.09 103.148 497.46 93.4667 498.979 83.6357C500.444 74.1721 501.028 65.0177 500.439 56.4863ZM100.156 91.5259H91.3623C93.781 91.5259 95.7615 93.3131 95.7615 95.4914C95.7615 97.6698 93.781 99.457 91.3623 99.457H40.4924C38.0782 99.457 36.0977 97.6698 36.0977 95.4914C36.0977 93.3131 38.0782 91.5259 40.4924 91.5259H49.2909C46.8722 91.5259 44.8962 89.7432 44.8962 87.5649C44.8962 85.3866 46.8722 83.5994 49.2909 83.5994H43.0069C40.5882 83.5994 38.6076 81.8167 38.6076 79.6384C38.6076 77.46 40.5882 75.6728 43.0069 75.6728H93.8768C96.2955 75.6728 98.2715 77.4555 98.2715 79.6384C98.2715 81.8212 96.2955 83.5994 93.8768 83.5994H100.156C102.575 83.5994 104.551 85.3866 104.551 87.5649C104.551 89.7432 102.575 91.5259 100.156 91.5259Z" fill="#E6E6E6"/>
<path d="M248.75 355.207C361.406 355.207 452.732 346.835 452.732 336.507C452.732 326.179 361.406 317.807 248.75 317.807C136.094 317.807 44.7686 326.179 44.7686 336.507C44.7686 346.835 136.094 355.207 248.75 355.207Z" fill="#E6E6E6"/>
<path d="M370.72 195.476C372.989 195.476 374.827 194.234 374.827 192.702C374.827 191.17 372.989 189.928 370.72 189.928C368.452 189.928 366.613 191.17 366.613 192.702C366.613 194.234 368.452 195.476 370.72 195.476Z" fill="#575A89"/>
<path d="M236.844 347.117C314.597 347.117 377.629 284.305 377.629 206.822C377.629 129.339 314.597 66.5273 236.844 66.5273C159.09 66.5273 96.0581 129.339 96.0581 206.822C96.0581 284.305 159.09 347.117 236.844 347.117Z" fill="#0284B2"/>
<path d="M310.714 277.324C310.714 299.471 275.776 279.216 238.318 279.216C200.86 279.216 162.974 298.634 162.974 276.487C162.974 263.858 175.049 246.296 192.372 233.539C205.424 223.926 221.451 217.041 237.551 217.041C254.108 217.041 270.327 224.494 283.264 234.726C299.593 247.628 310.714 264.964 310.714 277.324Z" fill="#444053"/>
<path d="M283.26 234.717C263.349 231.73 227.338 228.087 192.372 233.531C205.424 223.917 221.451 217.032 237.551 217.032C254.103 217.032 270.322 224.485 283.26 234.717Z" fill="#F6F8FB"/>
<path opacity="0.05" d="M162.974 107.788C162.974 107.788 120.564 134.806 120.911 177.067C121.258 219.328 162.974 107.788 162.974 107.788Z" fill="black"/>
<path d="M377.575 31.4832C377.575 31.4832 339.15 29.1775 343.681 56.0086C343.681 56.0086 342.769 60.7472 347.095 62.9028C347.095 62.9028 347.163 60.9155 351.033 61.5886C352.412 61.8185 353.814 61.8857 355.209 61.7887C357.094 61.6609 358.885 60.9232 360.311 59.6876C360.311 59.6876 371.113 55.2446 375.316 37.6498C375.316 37.6498 378.424 33.8116 378.3 32.8293L371.816 35.5852C371.816 35.5852 374.029 40.2465 372.272 44.1211C372.272 44.1211 372.062 35.758 370.816 35.9353C370.565 35.9763 367.448 37.5497 367.448 37.5497C367.448 37.5497 371.259 45.6718 368.361 51.5701C368.361 51.5701 369.452 41.5653 366.234 38.1364L361.671 40.7922C361.671 40.7922 366.125 49.1781 363.104 56.0222C363.104 56.0222 363.88 45.5263 360.712 41.438L356.573 44.6532C356.573 44.6532 360.758 52.9208 358.207 58.5962C358.207 58.5962 357.874 46.3767 355.679 45.4535C355.679 45.4535 352.06 48.6369 351.508 49.9421C351.508 49.9421 354.374 55.9404 352.598 59.1055C352.598 59.1055 351.508 50.9653 350.613 50.9198C350.613 50.9198 347.008 56.3133 346.629 60.0151C346.629 60.0151 346.789 54.5124 349.737 50.4059C349.737 50.4059 346.251 51.0017 344.22 53.2573C344.22 53.2573 344.781 49.4418 350.609 49.1098C350.609 49.1098 353.589 45.017 354.387 44.7714C354.387 44.7714 348.569 44.2848 345.041 45.8446C345.041 45.8446 348.144 42.2475 355.451 43.8801L359.558 40.5603C359.558 40.5603 351.9 39.5143 348.651 40.6694C348.651 40.6694 352.389 37.4861 360.658 39.8054L365.107 37.1541C365.107 37.1541 358.577 35.7534 354.684 36.2446C354.684 36.2446 358.791 34.039 366.408 36.431L369.602 35.0076C369.602 35.0076 364.815 34.0708 363.414 33.9253C362.013 33.7797 361.94 33.3886 361.94 33.3886C364.98 32.8961 368.098 33.2567 370.944 34.4301C370.944 34.4301 377.689 31.9061 377.575 31.4832Z" fill="#0284B2"/>
<path d="M338.164 19.5549C338.164 19.5549 320.823 18.5089 322.849 30.6329C322.849 30.6329 322.443 32.7749 324.391 33.7481C324.391 33.7481 324.419 32.8385 326.171 33.1569C326.794 33.259 327.426 33.2895 328.056 33.2478C328.908 33.1872 329.718 32.8538 330.365 32.2974C330.365 32.2974 335.243 30.2873 337.142 22.338C337.142 22.338 338.547 20.6054 338.511 20.1597L335.581 21.4058C335.581 21.4058 336.585 23.5113 335.796 25.2622C335.796 25.2622 335.7 21.4831 335.138 21.574C335.024 21.574 333.614 22.3017 333.614 22.3017C333.614 22.3017 335.339 25.9716 334.039 28.6365C334.039 28.6365 334.531 24.1162 333.08 22.5654L331.018 23.766C331.018 23.766 333.03 27.5587 331.666 30.6511C331.666 30.6511 332.012 25.9079 330.584 24.0616L328.713 25.5123C328.713 25.5123 330.602 29.2459 329.452 31.8108C329.452 31.8108 329.302 26.2899 328.307 25.8715C328.307 25.8715 326.673 27.3086 326.422 27.8998C326.422 27.8998 327.718 30.6284 326.915 32.0427C326.915 32.0427 326.422 28.3637 326.002 28.35C326.002 28.35 324.373 30.783 324.204 32.4429C324.283 30.8982 324.766 29.4009 325.605 28.0999C324.666 28.2769 323.8 28.7244 323.113 29.3869C323.113 29.3869 323.364 27.6633 326.007 27.5132C326.007 27.5132 327.353 25.6669 327.713 25.5532C327.713 25.5532 325.085 25.3349 323.492 26.0398C323.492 26.0398 324.893 24.4118 328.197 25.1303L330.023 23.6341C330.023 23.6341 326.563 23.1793 325.094 23.6796C325.094 23.6796 326.783 22.2425 330.52 23.293L332.528 22.0925C332.528 22.0925 329.58 21.4603 327.818 21.6877C327.818 21.6877 329.676 20.6918 333.117 21.7741L334.554 21.1284C334.554 21.1284 332.391 20.7054 331.761 20.6418C331.132 20.5781 331.091 20.4007 331.091 20.4007C332.46 20.1736 333.867 20.3311 335.152 20.8555C335.152 20.8555 338.214 19.7459 338.164 19.5549Z" fill="#0284B2"/>
<path opacity="0.1" d="M489.711 331.982C496.498 331.982 502 331.056 502 329.913C502 328.77 496.498 327.844 489.711 327.844C482.923 327.844 477.421 328.77 477.421 329.913C477.421 331.056 482.923 331.982 489.711 331.982Z" fill="#0284B2"/>
<path opacity="0.1" d="M21.3438 366.404C28.1312 366.404 33.6335 365.477 33.6335 364.334C33.6335 363.192 28.1312 362.265 21.3438 362.265C14.5565 362.265 9.0542 363.192 9.0542 364.334C9.0542 365.477 14.5565 366.404 21.3438 366.404Z" fill="#0284B2"/>
<path opacity="0.1" d="M92.6859 369C99.4733 369 104.976 368.074 104.976 366.931C104.976 365.788 99.4733 364.862 92.6859 364.862C85.8985 364.862 80.3962 365.788 80.3962 366.931C80.3962 368.074 85.8985 369 92.6859 369Z" fill="#0284B2"/>
<path d="M462.813 355.18C472.947 355.18 481.163 353.795 481.163 352.088C481.163 350.38 472.947 348.995 462.813 348.995C452.678 348.995 444.463 350.38 444.463 352.088C444.463 353.795 452.678 355.18 462.813 355.18Z" fill="#0284B2"/>
<path d="M470.397 347.035C471.235 346.354 471.846 345.436 472.15 344.402C472.373 343.36 471.926 342.105 470.927 341.723C469.804 341.296 468.604 342.073 467.696 342.856C466.788 343.638 465.743 344.529 464.552 344.366C465.164 343.813 465.622 343.111 465.881 342.329C466.141 341.547 466.192 340.712 466.03 339.904C465.978 339.57 465.836 339.255 465.619 338.995C464.994 338.331 463.867 338.613 463.119 339.136C460.746 340.8 460.084 344.011 460.07 346.903C459.833 345.862 460.034 344.775 460.029 343.72C460.025 342.665 459.728 341.446 458.824 340.887C458.264 340.588 457.634 340.441 456.999 340.459C455.931 340.418 454.744 340.523 454.014 341.3C453.102 342.269 453.343 343.888 454.133 344.938C454.922 345.989 456.118 346.671 457.218 347.403C458.103 347.928 458.858 348.644 459.427 349.5C459.493 349.62 459.548 349.747 459.591 349.877H466.277C467.773 349.119 469.159 348.163 470.397 347.035Z" fill="#0284B2"/>
<path d="M27.0801 308.903C27.0801 308.903 29.5855 312.168 25.9209 317.089C22.2564 322.009 19.2353 326.184 20.4447 329.258C20.4447 329.258 25.9711 320.099 30.4845 319.967C34.9978 319.835 32.027 314.41 27.0801 308.903Z" fill="#0284B2"/>
<path opacity="0.1" d="M27.0802 308.903C27.2977 309.218 27.4698 309.563 27.5913 309.926C31.9814 315.065 34.318 319.863 30.1012 319.981C26.1674 320.095 21.4305 327.098 20.3215 328.867C20.3603 329.004 20.406 329.139 20.4584 329.272C20.4584 329.272 25.9849 320.113 30.4983 319.981C35.0116 319.849 32.0271 314.41 27.0802 308.903Z" fill="black"/>
<path d="M31.7395 313.064C31.7395 314.215 31.6071 315.147 31.4474 315.147C31.2877 315.147 31.1599 314.237 31.1599 313.064C31.1599 311.891 31.3196 312.455 31.4839 312.455C31.6482 312.455 31.7395 311.914 31.7395 313.064Z" fill="#FFD037"/>
<path d="M33.3184 314.438C32.3053 314.988 31.4246 315.32 31.347 315.179C31.2694 315.038 32.0315 314.483 33.0446 313.933C34.0577 313.383 33.6561 313.783 33.7337 313.933C33.8113 314.083 34.3498 313.887 33.3184 314.438Z" fill="#FFD037"/>
<path d="M13.8367 308.903C13.8367 308.903 11.3313 312.168 14.9913 317.089C18.6512 322.009 21.6769 326.184 20.4675 329.258C20.4675 329.258 14.9365 320.099 10.4277 319.967C5.91891 319.835 8.88522 314.41 13.8367 308.903Z" fill="#0284B2"/>
<path opacity="0.1" d="M13.8367 308.903C13.6171 309.217 13.4449 309.562 13.3256 309.926C8.93544 315.065 6.59434 319.863 10.8156 319.981C14.7448 320.095 19.4864 327.098 20.5908 328.867C20.5535 329.004 20.5094 329.139 20.4584 329.272C20.4584 329.272 14.9274 320.113 10.4186 319.981C5.90981 319.849 8.88524 314.41 13.8367 308.903Z" fill="black"/>
<path d="M9.17725 313.064C9.17725 314.215 9.30503 315.147 9.46475 315.147C9.62448 315.147 9.75225 314.237 9.75225 313.064C9.75225 311.891 9.59253 312.455 9.43281 312.455C9.27308 312.455 9.17725 311.914 9.17725 313.064Z" fill="#FFD037"/>
<path d="M7.5755 314.438C8.58861 314.988 9.47394 315.32 9.55152 315.179C9.6291 315.038 8.86699 314.483 7.85388 313.933C6.84077 313.383 7.2378 313.783 7.16479 313.933C7.09177 314.083 6.56239 313.887 7.5755 314.438Z" fill="#FFD037"/>
<path d="M9.97583 328.844C9.97583 328.844 16.9854 328.631 19.1029 327.13C21.2204 325.629 29.8866 323.842 30.4114 326.22C30.9362 328.599 40.9441 338.181 33.0309 338.244C25.1177 338.308 14.6443 337.012 12.536 335.734C10.4276 334.456 9.97583 328.844 9.97583 328.844Z" fill="#A8A8A8"/>
<path opacity="0.2" d="M33.1632 337.43C25.25 337.494 14.7767 336.198 12.6683 334.92C11.062 333.947 10.4231 330.45 10.2086 328.835H9.97583C9.97583 328.835 10.4322 334.47 12.5269 335.748C14.6215 337.026 25.1086 338.322 33.0218 338.258C35.3036 338.258 36.093 337.426 36.052 336.23C35.7325 336.962 34.8655 337.417 33.1632 337.43Z" fill="black"/>
<path d="M186.791 188.427C189.47 188.277 202.079 187.331 210.088 182.779C211.374 182.025 212.827 181.598 214.318 181.537C216.865 181.465 219.794 182.524 217.919 188.454C214.879 198.154 197.232 209.069 186.28 208.464C175.747 207.882 163.252 203.653 155.001 188.782C154.211 187.351 153.821 185.735 153.874 184.102C153.97 181.101 155.065 177.34 160.719 181.533C168.359 187.195 182.852 188.268 185.759 188.427C186.103 188.445 186.447 188.445 186.791 188.427Z" fill="#444053"/>
<path d="M288.102 188.427C290.78 188.277 303.389 187.331 311.398 182.779C312.685 182.025 314.138 181.598 315.629 181.537C318.175 181.465 321.105 182.524 319.23 188.454C316.19 198.154 298.543 209.069 287.59 208.464C277.058 207.882 264.563 203.653 256.312 188.782C255.521 187.351 255.132 185.735 255.185 184.102C255.28 181.101 256.376 177.34 262.03 181.533C269.669 187.195 284.163 188.268 287.07 188.427C287.414 188.445 287.758 188.445 288.102 188.427Z" fill="#444053"/>
</g>
<defs>
<clipPath id="clip0_1_22357">
<rect width="502" height="369" fill="white"/>
</clipPath>
</defs>
</svg>
