<svg width="84" height="85" viewBox="0 0 84 85" fill="none" xmlns="http://www.w3.org/2000/svg">
<path d="M15.2411 77.9439C19.1699 83.5237 24.3162 88.1368 30.2907 91.4343C36.2652 94.7318 42.9115 96.6274 49.7266 96.9775C56.5417 97.3276 63.3472 96.1231 69.6282 93.4552C75.9092 90.7873 81.5012 86.7259 85.981 81.5781C90.4609 76.4303 93.7113 70.3311 95.4864 63.7419C97.2614 57.1527 97.5146 50.2461 96.2268 43.5446C94.939 36.8431 92.1439 30.5222 88.053 25.0603C83.9621 19.5983 78.6826 15.1383 72.6138 12.0176L62.1609 32.3455C65.147 33.881 67.7448 36.0756 69.7577 38.7631C71.7706 41.4506 73.1459 44.5608 73.7796 47.8582C74.4132 51.1557 74.2887 54.554 73.4152 57.7962C72.5418 61.0384 70.9425 64.0395 68.7382 66.5724C66.5339 69.1054 63.7824 71.1038 60.6919 72.4165C57.6013 73.7293 54.2527 74.3219 50.8994 74.1496C47.546 73.9774 44.2757 73.0447 41.336 71.4221C38.3963 69.7996 35.864 67.5297 33.9309 64.7843L15.2411 77.9439Z" fill="#27B8D9"/>
<circle cx="52" cy="52" r="18" fill="#90E8FC"/>
</svg>
