<svg width="622" height="433" viewBox="0 0 622 433" fill="none" xmlns="http://www.w3.org/2000/svg">
<g clip-path="url(#clip0_20_171)">
<path d="M123.929 433C192.374 433 247.859 428.784 247.859 423.582C247.859 418.381 192.374 414.165 123.929 414.165C55.4851 414.165 0 418.381 0 423.582C0 428.784 55.4851 433 123.929 433Z" fill="#CCECF3"/>
<path d="M94.7292 96.0751C116.297 86.8966 143.159 92.712 169.393 96.7481C169.638 91.8604 172.597 85.9117 169.497 82.5018C165.731 78.359 166.078 74.006 168.344 69.6281C174.139 58.4329 165.836 46.5206 157.454 36.6156C155.564 34.3881 153.176 32.6379 150.484 31.5072C147.792 30.3765 144.871 29.8972 141.958 30.1082L126.43 31.218C122.651 31.488 119.045 32.9063 116.094 35.283C113.143 37.6597 110.988 40.8816 109.917 44.5173C106.209 49.563 104.224 54.5946 105.474 59.6001C99.9199 63.3976 98.9868 67.9816 101.482 73.1492C103.599 76.403 103.576 79.5702 101.386 82.6497C98.5101 86.5759 96.3073 90.9538 94.8681 95.6038L94.7292 96.0751Z" fill="#0284B2"/>
<path d="M607.261 374.321H167.69C163.781 374.321 160.032 372.768 157.268 370.002C154.504 367.236 152.951 363.485 152.951 359.574C312.295 341.045 468.645 341.045 622 359.574C622 363.485 620.447 367.236 617.683 370.002C614.919 372.768 611.17 374.321 607.261 374.321Z" fill="#2F2E41"/>
<path d="M622 360.442L152.951 359.574L207.312 268.054L207.572 267.62V65.9205C207.572 63.4723 208.054 61.0481 208.99 58.7862C209.926 56.5243 211.299 54.4691 213.029 52.738C214.759 51.0068 216.813 49.6336 219.074 48.6968C221.334 47.7601 223.757 47.278 226.204 47.2782H546.146C548.593 47.278 551.016 47.7601 553.276 48.6968C555.537 49.6336 557.591 51.0068 559.321 52.738C561.051 54.4691 562.424 56.5243 563.36 58.7862C564.296 61.0481 564.778 63.4723 564.778 65.9205V269.008L622 360.442Z" fill="#3F3D56"/>
<path d="M225.779 60.2905C224.17 60.2923 222.628 60.9327 221.49 62.0711C220.352 63.2095 219.712 64.753 219.71 66.3629V250.271C219.712 251.881 220.352 253.424 221.49 254.562C222.628 255.701 224.17 256.341 225.779 256.343H549.172C550.781 256.341 552.323 255.701 553.461 254.562C554.599 253.424 555.239 251.881 555.241 250.271V66.3629C555.239 64.753 554.599 63.2096 553.461 62.0712C552.323 60.9328 550.781 60.2924 549.172 60.2905H225.779Z" fill="white"/>
<path d="M227.134 280.633C226.637 280.634 226.151 280.777 225.732 281.045C225.313 281.313 224.98 281.696 224.771 282.147L208.021 318.582C207.839 318.978 207.759 319.414 207.789 319.85C207.819 320.285 207.958 320.706 208.194 321.074C208.429 321.441 208.753 321.743 209.135 321.953C209.518 322.162 209.947 322.272 210.384 322.272H562.635C563.078 322.272 563.514 322.159 563.901 321.943C564.289 321.727 564.614 321.415 564.847 321.038C565.08 320.66 565.213 320.23 565.233 319.787C565.253 319.343 565.159 318.902 564.961 318.506L546.754 282.071C546.539 281.638 546.207 281.274 545.796 281.019C545.385 280.765 544.911 280.631 544.428 280.633H227.134Z" fill="#2F2E41"/>
<path d="M386.175 57.2543C388.33 57.2543 390.076 55.5066 390.076 53.3506C390.076 51.1946 388.33 49.4469 386.175 49.4469C384.02 49.4469 382.273 51.1946 382.273 53.3506C382.273 55.5066 384.02 57.2543 386.175 57.2543Z" fill="white"/>
<path d="M351.552 329.212C350.98 329.213 350.424 329.402 349.97 329.75C349.516 330.098 349.19 330.586 349.04 331.138L344.839 346.753C344.735 347.138 344.721 347.543 344.798 347.935C344.876 348.326 345.043 348.695 345.285 349.012C345.528 349.329 345.841 349.586 346.199 349.763C346.557 349.94 346.951 350.032 347.35 350.032H427.256C427.671 350.032 428.079 349.933 428.448 349.743C428.816 349.552 429.134 349.277 429.375 348.939C429.615 348.601 429.771 348.21 429.83 347.8C429.889 347.389 429.849 346.97 429.713 346.578L424.311 330.963C424.134 330.452 423.802 330.009 423.362 329.695C422.921 329.381 422.394 329.212 421.853 329.212H351.552Z" fill="#2F2E41"/>
<path d="M564.778 264.584V268.054H207.312L207.581 267.621V264.584H564.778Z" fill="#2F2E41"/>
<path d="M554.807 121.448C588.325 121.448 615.497 94.2613 615.497 60.7242C615.497 27.1872 588.325 0 554.807 0C521.289 0 494.117 27.1872 494.117 60.7242C494.117 94.2613 521.289 121.448 554.807 121.448Z" fill="#0284B2"/>
<path d="M579.951 87.1827H529.664C528.745 87.1818 527.863 86.8159 527.213 86.1653C526.563 85.5148 526.197 84.6327 526.196 83.7127V53.3506C526.197 52.4306 526.563 51.5486 527.213 50.898C527.863 50.2475 528.745 49.8816 529.664 49.8806H579.951C580.87 49.8816 581.752 50.2475 582.402 50.898C583.052 51.5486 583.418 52.4306 583.419 53.3506V83.7127C583.418 84.6327 583.052 85.5148 582.402 86.1653C581.752 86.8159 580.87 87.1818 579.951 87.1827ZM529.664 53.3506V83.7127H579.953L579.951 53.3506L529.664 53.3506Z" fill="white"/>
<path d="M570.413 53.3506H539.201V39.4708C539.201 29.4176 545.765 22.121 554.807 22.121C563.85 22.121 570.413 29.4176 570.413 39.4708L570.413 53.3506ZM542.669 49.8806H566.945V39.4708C566.945 31.2986 561.954 25.5909 554.807 25.5909C547.66 25.5909 542.669 31.2987 542.669 39.4708L542.669 49.8806Z" fill="white"/>
<path d="M554.807 71.1341C556.723 71.1341 558.275 69.5806 558.275 67.6642C558.275 65.7478 556.723 64.1942 554.807 64.1942C552.892 64.1942 551.339 65.7478 551.339 67.6642C551.339 69.5806 552.892 71.1341 554.807 71.1341Z" fill="white"/>
<path d="M512.44 193.963H262.511C261.284 193.962 260.107 193.474 259.239 192.605C258.372 191.737 257.884 190.56 257.882 189.332V127.301C257.884 126.073 258.372 124.896 259.239 124.028C260.107 123.16 261.284 122.671 262.511 122.67H512.44C513.667 122.671 514.843 123.16 515.711 124.028C516.579 124.896 517.067 126.073 517.068 127.301V189.332C517.067 190.56 516.579 191.737 515.711 192.605C514.843 193.474 513.667 193.962 512.44 193.963ZM262.511 124.522C261.774 124.523 261.068 124.816 260.548 125.337C260.027 125.858 259.734 126.564 259.734 127.301V189.332C259.734 190.069 260.027 190.775 260.548 191.296C261.068 191.817 261.774 192.11 262.511 192.111H512.44C513.176 192.11 513.882 191.817 514.403 191.296C514.923 190.775 515.216 190.069 515.217 189.332V127.301C515.216 126.564 514.923 125.858 514.403 125.337C513.882 124.816 513.176 124.523 512.44 124.522L262.511 124.522Z" fill="#E6E6E6"/>
<path d="M301.345 174.8C311.757 174.8 320.198 166.355 320.198 155.937C320.198 145.518 311.757 137.073 301.345 137.073C290.932 137.073 282.491 145.518 282.491 155.937C282.491 166.355 290.932 174.8 301.345 174.8Z" fill="#E6E6E6"/>
<path d="M344.887 143.361C344.474 143.36 344.065 143.441 343.683 143.599C343.301 143.756 342.954 143.988 342.662 144.28C342.37 144.572 342.138 144.919 341.979 145.3C341.821 145.682 341.74 146.091 341.74 146.505C341.74 146.918 341.821 147.327 341.979 147.709C342.138 148.091 342.37 148.438 342.662 148.73C342.954 149.022 343.301 149.253 343.683 149.411C344.065 149.568 344.474 149.649 344.887 149.649H493.02C493.853 149.649 494.653 149.317 495.242 148.728C495.831 148.138 496.162 147.339 496.162 146.505C496.162 145.671 495.831 144.871 495.242 144.282C494.653 143.692 493.853 143.361 493.02 143.361H344.887Z" fill="#E6E6E6"/>
<path d="M344.887 162.225C344.053 162.225 343.254 162.556 342.665 163.145C342.076 163.735 341.745 164.535 341.745 165.369C341.745 166.202 342.076 167.002 342.665 167.592C343.254 168.181 344.053 168.513 344.887 168.513H408.629C409.462 168.513 410.261 168.181 410.851 167.592C411.44 167.002 411.771 166.202 411.771 165.369C411.771 164.535 411.44 163.735 410.851 163.145C410.261 162.556 409.462 162.225 408.629 162.225H344.887Z" fill="#E6E6E6"/>
<path d="M206.697 163.496L160.495 188.073L159.911 167.592C174.99 165.074 189.337 160.688 202.603 153.549L207.435 141.604C207.962 140.302 208.817 139.16 209.918 138.29C211.019 137.419 212.328 136.85 213.715 136.638C215.102 136.426 216.521 136.578 217.831 137.081C219.142 137.583 220.299 138.417 221.19 139.502C222.493 141.09 223.145 143.114 223.013 145.164C222.88 147.214 221.974 149.137 220.477 150.544L206.697 163.496Z" fill="#D85B53"/>
<path d="M93.8085 305.392C93.4714 304.155 93.3999 302.861 93.5985 301.595C93.7972 300.328 94.2615 299.118 94.961 298.044L105.11 282.46C107.511 278.774 111.194 276.111 115.446 274.989C119.697 273.866 124.214 274.364 128.119 276.386C123.854 283.65 124.449 290.023 129.592 295.561C121.607 299.462 114.227 304.496 107.68 310.508C106.485 311.323 105.113 311.841 103.677 312.018C102.242 312.195 100.785 312.026 99.4274 311.526C98.0702 311.025 96.8522 310.207 95.8748 309.14C94.8974 308.074 94.189 306.789 93.8085 305.392Z" fill="#2F2E41"/>
<path d="M208.801 285.015C207.265 287.576 205.097 289.7 202.505 291.181C199.913 292.662 196.984 293.452 194 293.475L126.575 293.986L123.651 277.016L153.478 268.239L128.33 248.929L155.817 216.745L205.742 263.303C208.66 266.024 210.555 269.665 211.112 273.618C211.669 277.57 210.853 281.593 208.801 285.015Z" fill="#0284B2"/>
<path d="M116.049 401.069H100.258C86.0809 303.834 71.6496 206.327 114.294 169.933L164.589 178.125L158.156 220.842L130.085 253.025L116.049 401.069Z" fill="#0284B2"/>
<path d="M129.929 423.096C128.693 423.433 127.399 423.505 126.134 423.306C124.868 423.108 123.658 422.643 122.585 421.943L105.44 419.637C101.756 417.236 99.0945 413.551 97.9726 409.297C96.8506 405.043 97.348 400.523 99.3681 396.616C106.629 400.883 112.998 400.288 118.533 395.141C122.444 403.042 128.887 402.56 135.041 409.216C135.856 410.412 136.373 411.785 136.55 413.221C136.727 414.658 136.559 416.116 136.059 417.474C135.558 418.832 134.741 420.05 133.675 421.028C132.609 422.006 131.325 422.715 129.929 423.096Z" fill="#0284B2"/>
<path d="M153.478 104.981L124.236 97.9591C129.093 88.0126 129.493 76.945 127.16 65.1904L147.045 64.6052C147.668 79.2225 149.553 92.8787 153.478 104.981Z" fill="#D85B53"/>
<path d="M161.514 195.744C140.228 210.257 125.187 196.24 113.709 174.614C115.304 161.381 112.722 145.545 107.939 128.337C105.812 120.748 106.606 112.636 110.165 105.604C113.723 98.5711 119.788 93.1292 127.16 90.3521L152.308 100.885C173.661 118.3 177.864 137.164 169.853 157.06L161.514 195.744Z" fill="#CCECF3"/>
<path d="M100.258 119.61L76.8651 131.898L118.388 156.475L124.165 170.734C124.551 171.686 124.739 172.706 124.718 173.733C124.696 174.76 124.466 175.771 124.041 176.706C123.616 177.641 123.006 178.479 122.246 179.17C121.487 179.861 120.595 180.39 119.625 180.725C118.522 181.106 117.346 181.226 116.188 181.076C115.031 180.925 113.925 180.509 112.955 179.86C111.986 179.21 111.18 178.345 110.6 177.332C110.021 176.319 109.683 175.185 109.615 174.02L109.031 164.082L56.2557 146.656C54.4776 146.069 52.8563 145.085 51.5147 143.778C50.173 142.471 49.1462 140.876 48.5119 139.113C47.5875 136.543 47.5404 133.74 48.3781 131.141C49.2159 128.542 50.8911 126.294 53.1417 124.749L95.5796 95.6184L100.258 119.61Z" fill="#D85B53"/>
<path d="M123.651 121.95C113.895 117.672 105.023 122.32 93.8253 126.046L92.0708 95.0333C103.19 89.1036 113.791 87.5048 123.651 92.1075L123.651 121.95Z" fill="#CCECF3"/>
<path d="M135.322 79.9671C145.633 79.9671 153.992 71.6038 153.992 61.2871C153.992 50.9705 145.633 42.6072 135.322 42.6072C125.011 42.6072 116.653 50.9705 116.653 61.2871C116.653 71.6038 125.011 79.9671 135.322 79.9671Z" fill="#D85B53"/>
<path d="M157.657 58.9302C139.173 60.7416 125.088 57.7169 116.086 49.1044V42.1686H156.088L157.657 58.9302Z" fill="#0284B2"/>
</g>
<defs>
<clipPath id="clip0_20_171">
<rect width="622" height="433" fill="white"/>
</clipPath>
</defs>
</svg>
