<svg width="298" height="483" viewBox="0 0 298 483" fill="none" xmlns="http://www.w3.org/2000/svg">
<g clip-path="url(#clip0_26_598)">
<path d="M145.355 254.031C168.892 254.031 187.971 234.952 187.971 211.415C187.971 187.879 168.892 168.799 145.355 168.799C121.819 168.799 102.739 187.879 102.739 211.415C102.739 234.952 121.819 254.031 145.355 254.031Z" fill="#0284B2"/>
<path d="M41.7091 315.113C40.8062 314.68 40.0364 314.012 39.4804 313.18C38.9245 312.347 38.6028 311.38 38.5493 310.38L37.9294 298.644C37.8529 297.168 38.3651 295.722 39.3535 294.624C40.3419 293.525 41.7257 292.863 43.2015 292.784L141.018 287.616C142.494 287.54 143.94 288.052 145.038 289.04C146.137 290.029 146.799 291.413 146.878 292.888L147.498 304.625C147.575 306.1 147.062 307.546 146.074 308.645C145.086 309.743 143.702 310.405 142.226 310.485L44.4096 315.652C43.4784 315.703 42.5495 315.517 41.7091 315.113Z" fill="#0284B2"/>
<path d="M109.139 315.343C108.187 314.882 107.386 314.162 106.827 313.264C106.268 312.367 105.975 311.33 105.982 310.273L105.866 288.176C105.872 287.444 106.021 286.719 106.307 286.045C106.592 285.37 107.008 284.759 107.529 284.245C108.051 283.731 108.67 283.325 109.349 283.05C110.027 282.776 110.754 282.637 111.486 282.644L156.11 286.577C157.292 286.585 158.783 288.415 159.981 289.884C160.357 290.345 160.682 290.743 160.92 290.984C161.024 291.09 161.123 291.2 161.217 291.312C162.069 292.327 162.531 293.614 162.519 294.94L162.421 306.691C162.407 308.169 161.808 309.581 160.754 310.617C159.701 311.653 158.279 312.23 156.801 312.219L111.544 315.892C110.712 315.889 109.89 315.702 109.139 315.343Z" fill="#2F2E41"/>
<path d="M137.048 482.027H125.296C123.818 482.025 122.401 481.437 121.356 480.393C120.311 479.348 119.723 477.931 119.722 476.453V376.907C119.723 375.43 120.311 374.013 121.356 372.968C122.401 371.923 123.818 371.335 125.296 371.333H137.048C138.526 371.335 139.943 371.923 140.988 372.968C142.033 374.013 142.62 375.43 142.622 376.907V476.453C142.62 477.931 142.033 479.348 140.988 480.393C139.943 481.437 138.526 482.025 137.048 482.027Z" fill="#0284B2"/>
<path d="M168.048 482.027H156.296C154.818 482.025 153.401 481.437 152.356 480.393C151.311 479.348 150.723 477.931 150.722 476.453V376.907C150.723 375.43 151.311 374.013 152.356 372.968C153.401 371.923 154.818 371.335 156.296 371.333H168.048C169.526 371.335 170.943 371.923 171.988 372.968C173.033 374.013 173.62 375.43 173.622 376.907V476.453C173.62 477.931 173.033 479.348 171.988 480.393C170.943 481.437 169.526 482.025 168.048 482.027Z" fill="#0284B2"/>
<path d="M151.029 227.21L151.073 225.618C148.11 225.535 145.498 225.349 143.536 223.915C142.979 223.486 142.522 222.941 142.195 222.319C141.867 221.697 141.678 221.012 141.639 220.31C141.605 219.881 141.67 219.45 141.829 219.05C141.988 218.65 142.238 218.293 142.557 218.005C143.86 216.905 145.957 217.261 147.485 217.961L148.802 218.565L146.276 200.099L144.698 200.316L146.847 216.023C145.967 215.697 145.02 215.596 144.091 215.73C143.162 215.863 142.282 216.227 141.529 216.789C141.024 217.23 140.627 217.783 140.37 218.404C140.113 219.024 140.003 219.696 140.048 220.366C140.095 221.309 140.347 222.23 140.787 223.066C141.227 223.901 141.845 224.63 142.596 225.202C145.118 227.045 148.395 227.136 151.029 227.21Z" fill="#2F2E41"/>
<path d="M136.894 201.67H128.317V203.263H136.894V201.67Z" fill="#2F2E41"/>
<path d="M163.968 201.67H155.391V203.263H163.968V201.67Z" fill="#2F2E41"/>
<path d="M193.908 353.339L154.573 274.901H155.128C156.5 274.899 157.816 274.353 158.786 273.383C159.756 272.413 160.302 271.097 160.304 269.725V268.132C160.302 266.76 159.756 265.444 158.786 264.474C157.816 263.504 156.5 262.958 155.128 262.956H137.61C136.237 262.958 134.922 263.504 133.952 264.474C132.981 265.444 132.435 266.76 132.434 268.132V269.725C132.438 270.991 132.907 272.211 133.751 273.154C134.596 274.097 135.757 274.697 137.015 274.84L97.5672 353.382C95.6912 357.117 94.802 361.27 94.9842 365.446C95.1665 369.622 96.4141 373.682 98.6084 377.239C100.803 380.797 103.871 383.734 107.521 385.771C111.171 387.808 115.281 388.878 119.461 388.878H171.973C176.158 388.878 180.273 387.807 183.928 385.768C187.583 383.729 190.656 380.789 192.854 377.227C195.052 373.666 196.303 369.601 196.487 365.42C196.672 361.239 195.784 357.08 193.908 353.339Z" fill="#2F2E41"/>
<path d="M147.196 292.653L235.923 251.152C237.262 250.527 238.795 250.459 240.184 250.963C241.573 251.466 242.706 252.501 243.333 253.839L248.313 264.484C248.937 265.823 249.005 267.356 248.501 268.745C247.998 270.134 246.963 271.267 245.625 271.895L156.899 313.396C155.56 314.021 154.027 314.089 152.638 313.585C151.249 313.081 150.116 312.047 149.488 310.709L144.509 300.063C144.197 299.401 144.02 298.683 143.988 297.952C143.955 297.22 144.068 296.49 144.32 295.802C144.517 295.257 144.797 294.746 145.151 294.287C145.692 293.587 146.394 293.026 147.196 292.653Z" fill="#0284B2"/>
<path d="M144.154 292.397L183.217 269.113C184.548 268.474 186.079 268.389 187.473 268.877C188.867 269.365 190.011 270.386 190.654 271.716L200.505 291.507C200.823 292.169 201.008 292.887 201.048 293.621C201.087 294.354 200.982 295.089 200.737 295.781C200.492 296.474 200.112 297.111 199.62 297.656C199.128 298.201 198.532 298.644 197.868 298.958L156.14 315.078C155.047 315.604 152.902 314.62 151.178 313.829C150.637 313.581 150.171 313.367 149.852 313.256C149.711 313.207 149.574 313.152 149.44 313.093C148.227 312.557 147.245 311.606 146.672 310.411L141.578 299.82C141.13 298.886 140.95 297.846 141.058 296.816C141.166 295.786 141.559 294.806 142.191 293.986C142.712 293.31 143.385 292.766 144.154 292.397Z" fill="#2F2E41"/>
<path d="M111.696 189.25C111.126 189.248 110.58 189.021 110.177 188.617C109.774 188.214 109.547 187.668 109.545 187.098C109.543 186.928 109.562 186.759 109.602 186.595L120.741 137.531C120.825 137.162 121.005 136.821 121.262 136.543C121.52 136.265 121.846 136.059 122.208 135.946C122.569 135.834 122.955 135.818 123.324 135.901C123.694 135.984 124.036 136.163 124.315 136.419L161.243 170.616C161.521 170.873 161.726 171.199 161.838 171.561C161.95 171.923 161.966 172.308 161.883 172.678C161.799 173.047 161.621 173.389 161.364 173.667C161.108 173.946 160.783 174.153 160.422 174.267L112.343 189.153C112.134 189.217 111.915 189.25 111.696 189.25Z" fill="#3F3D56"/>
<path d="M141.9 153.383L118.704 148.767L119.069 147.156L139.576 151.233L141.9 153.383Z" fill="white"/>
<path d="M160.165 170.303L115.815 161.478L116.18 159.859L157.84 168.144L160.165 170.303Z" fill="white"/>
<path d="M144.3 178.738L140.971 179.767L112.935 174.188L113.3 172.569L144.3 178.738Z" fill="white"/>
<path d="M252.436 190C256.302 190 259.436 186.866 259.436 183C259.436 179.134 256.302 176 252.436 176C248.57 176 245.436 179.134 245.436 183C245.436 186.866 248.57 190 252.436 190Z" fill="#0284B2"/>
<path d="M162.436 10C165.197 10 167.436 7.76142 167.436 5C167.436 2.23858 165.197 0 162.436 0C159.674 0 157.436 2.23858 157.436 5C157.436 7.76142 159.674 10 162.436 10Z" fill="#FF6584"/>
<path d="M53.4355 165C56.197 165 58.4355 162.761 58.4355 160C58.4355 157.239 56.197 155 53.4355 155C50.6741 155 48.4355 157.239 48.4355 160C48.4355 162.761 50.6741 165 53.4355 165Z" fill="#FF6584"/>
<path d="M228.436 148C231.197 148 233.436 145.761 233.436 143C233.436 140.239 231.197 138 228.436 138C225.674 138 223.436 140.239 223.436 143C223.436 145.761 225.674 148 228.436 148Z" fill="#0284B2"/>
<path d="M76.4355 216C79.197 216 81.4355 213.761 81.4355 211C81.4355 208.239 79.197 206 76.4355 206C73.6741 206 71.4355 208.239 71.4355 211C71.4355 213.761 73.6741 216 76.4355 216Z" fill="#0284B2"/>
<path d="M234.436 230C237.197 230 239.436 227.761 239.436 225C239.436 222.239 237.197 220 234.436 220C231.674 220 229.436 222.239 229.436 225C229.436 227.761 231.674 230 234.436 230Z" fill="#E6E6E6"/>
<path d="M190.436 52C193.197 52 195.436 49.7614 195.436 47C195.436 44.2386 193.197 42 190.436 42C187.674 42 185.436 44.2386 185.436 47C185.436 49.7614 187.674 52 190.436 52Z" fill="#CCCCCC"/>
<path d="M1.45229 106.977C6.6878 107.307 11.7706 108.872 16.2841 111.546C20.7976 114.219 24.6133 117.925 27.4183 122.357C28.2044 123.614 29.2306 124.995 28.6864 126.542C28.4968 127.135 28.1117 127.646 27.5939 127.992C27.0761 128.338 26.4563 128.498 25.8358 128.446C25.0622 128.279 24.3648 127.863 23.8513 127.261C23.3378 126.659 23.0367 125.904 22.9943 125.114C22.952 124.324 23.1708 123.542 23.6171 122.888C24.0633 122.235 24.7121 121.746 25.4635 121.498C29.0947 119.949 32.7582 122.343 35.716 124.253C42.4556 128.606 49.8685 132.543 58.035 133.039C65.5909 133.498 73.6934 130.535 77.8961 123.983C78.6314 122.837 76.8059 121.777 76.0742 122.918C71.9061 129.416 63.4801 131.75 56.1537 130.746C51.7878 130.057 47.572 128.626 43.689 126.514C41.6753 125.469 39.7223 124.31 37.8087 123.093C35.9879 121.822 34.0578 120.716 32.0413 119.786C28.6783 118.405 24.2262 118.513 21.8771 121.693C19.6856 124.661 21.3793 129.601 25.0448 130.435C25.8489 130.594 26.6797 130.55 27.4629 130.309C28.246 130.067 28.957 129.635 29.532 129.051C30.107 128.467 30.5282 127.749 30.7577 126.962C30.9871 126.176 31.0178 125.344 30.8469 124.543C30.4811 122.795 29.1653 121.085 28.1469 119.657C25.0868 115.352 21.0999 111.789 16.4799 109.229C11.86 106.669 6.72463 105.179 1.45217 104.867C0.0949023 104.8 0.0985644 106.91 1.45229 106.977Z" fill="#CCCCCC"/>
<path d="M297.164 170.847C293.656 168.589 290.733 165.531 288.634 161.925C286.536 158.319 285.322 154.266 285.093 150.1C285.034 148.923 284.856 147.566 285.834 146.703C286.195 146.364 286.661 146.159 287.155 146.119C287.648 146.08 288.141 146.209 288.552 146.486C289.024 146.901 289.347 147.461 289.47 148.078C289.594 148.695 289.51 149.336 289.234 149.901C288.957 150.466 288.501 150.924 287.938 151.205C287.375 151.486 286.735 151.574 286.117 151.455C282.995 151.123 281.378 148.041 280.065 145.568C277.071 139.932 273.449 134.324 267.97 130.814C262.9 127.567 256.125 126.484 250.666 129.405C249.711 129.916 250.568 131.36 251.518 130.851C256.932 127.954 263.689 129.599 268.387 133.136C271.152 135.307 273.525 137.935 275.404 140.907C276.397 142.413 277.304 143.975 278.161 145.562C278.933 147.151 279.845 148.667 280.885 150.094C282.685 152.357 285.819 154.008 288.683 152.71C289.322 152.379 289.874 151.904 290.295 151.322C290.717 150.741 290.997 150.068 291.113 149.359C291.228 148.65 291.176 147.923 290.961 147.238C290.745 146.552 290.372 145.926 289.872 145.411C289.375 144.989 288.781 144.697 288.144 144.561C287.506 144.425 286.845 144.45 286.219 144.633C285.593 144.815 285.023 145.15 284.558 145.608C284.094 146.065 283.75 146.631 283.558 147.254C283.264 148.718 283.257 150.226 283.54 151.694C283.996 155.869 285.384 159.89 287.6 163.458C289.817 167.027 292.805 170.053 296.346 172.313C297.263 172.886 298.078 171.419 297.164 170.847Z" fill="#CCCCCC"/>
<path d="M124.627 32.4056C120.463 32.1433 116.42 30.8979 112.831 28.7715C109.241 26.6451 106.206 23.6983 103.975 20.1725C103.35 19.173 102.534 18.0746 102.967 16.8444C103.117 16.3726 103.424 15.966 103.835 15.691C104.247 15.4159 104.74 15.2887 105.234 15.3301C105.849 15.4626 106.404 15.7938 106.812 16.2727C107.221 16.7516 107.46 17.3515 107.494 17.98C107.527 18.6085 107.353 19.2306 106.998 19.7504C106.643 20.2702 106.127 20.6588 105.53 20.8562C102.642 22.0881 99.728 20.1843 97.3755 18.6648C92.0152 15.2027 86.1194 12.0716 79.6241 11.6771C73.6146 11.3121 67.1702 13.6684 63.8276 18.8798C63.2428 19.7916 64.6948 20.6341 65.2767 19.7268C68.5918 14.5583 75.2934 12.7021 81.1203 13.5009C84.5928 14.0489 87.9459 15.1872 91.0342 16.8667C92.6358 17.6979 94.189 18.6193 95.711 19.5878C97.1592 20.5984 98.6943 21.4784 100.298 22.2175C102.973 23.3162 106.514 23.2304 108.382 20.7007C108.778 20.1012 109.029 19.4173 109.114 18.7037C109.199 17.9901 109.115 17.2666 108.87 16.591C108.626 15.9153 108.226 15.3063 107.704 14.8127C107.182 14.319 106.551 13.9544 105.863 13.748C105.223 13.6219 104.562 13.6565 103.94 13.8487C103.317 14.0408 102.751 14.3846 102.294 14.849C101.837 15.3135 101.502 15.8842 101.319 16.51C101.137 17.1357 101.112 17.797 101.248 18.4345C101.705 19.8571 102.434 21.177 103.396 22.3203C105.829 25.7442 109 28.5784 112.675 30.6143C116.349 32.6502 120.434 33.8358 124.627 34.0838C125.707 34.1372 125.704 32.4589 124.627 32.4056Z" fill="#CCCCCC"/>
<path d="M128.436 85.5714H123.436V102H128.436V85.5714Z" fill="#CCCCCC"/>
<path d="M47.5925 74.1066L51.0674 70.6317L39.6499 59.2143L36.1751 62.6891L47.5925 74.1066Z" fill="#B3B3B3"/>
<path d="M188.175 108.632L191.649 112.107L203.067 100.689L199.592 97.2143L188.175 108.632Z" fill="#B3B3B3"/>
<path d="M46.1745 250.632L49.6494 254.107L61.0669 242.689L57.592 239.214L46.1745 250.632Z" fill="#FF6584"/>
</g>
<defs>
<clipPath id="clip0_26_598">
<rect width="297.128" height="482.027" fill="white" transform="translate(0.435547)"/>
</clipPath>
</defs>
</svg>
